<svg width="53" height="53" viewBox="0 0 53 53" fill="none" xmlns="http://www.w3.org/2000/svg">
<g clip-path="url(#clip0_17_1168)">
<path d="M38.8701 0.610743C38.3215 0.85918 38.0109 1.18008 37.7729 1.69766C37.5969 2.09102 37.5762 2.45332 37.5762 6.50078C37.5762 11.2729 37.5762 11.3143 38.1766 11.9354C38.601 12.3805 38.9736 12.5357 39.7914 12.5979C41.0336 12.691 41.8617 12.3287 42.3379 11.4902L42.5967 11.0244L42.6277 6.85273C42.6484 4.13027 42.6174 2.48438 42.5449 2.13242C42.4104 1.46992 41.9445 0.869532 41.3648 0.610743C40.7748 0.341602 39.4395 0.341602 38.8701 0.610743Z" fill="#333333"/>
<path d="M12.0593 0.662499C11.6245 0.848827 11.107 1.40781 10.9517 1.85293C10.7964 2.27734 10.755 10.424 10.8999 11.1072C10.9413 11.3143 11.1277 11.6662 11.314 11.8732C11.8109 12.4322 12.3181 12.6289 13.3532 12.6289C14.4505 12.6289 15.0095 12.3908 15.4753 11.718L15.7859 11.2625L15.8169 6.80098C15.8376 3.79902 15.8169 2.20488 15.7341 1.94609C15.5892 1.44922 15.1855 0.973046 14.6886 0.724609C14.2124 0.476171 12.5665 0.434765 12.0593 0.662499Z" fill="#333333"/>
<path d="M2.26676 4.90664C1.30407 5.24824 0.558753 5.9832 0.2068 6.90449C-0.000231409 7.46347 -0.000231413 7.6291 0.0204717 28.8084L0.0515264 50.1533L0.310315 50.6605C0.651917 51.3334 1.28336 51.9441 1.96657 52.265L2.5359 52.5342H26.4998H50.4636L51.033 52.265C51.7162 51.9441 52.3476 51.3334 52.6892 50.6605L52.948 50.1533V28.6221V7.09081L52.6478 6.54218C52.2959 5.92109 51.7679 5.39316 51.1158 5.05156C50.681 4.82382 50.5775 4.81347 47.441 4.78242L44.2113 4.75136L44.1802 8.25019C44.1492 11.6869 44.1492 11.7594 43.9007 12.2976C43.6006 12.9705 42.9277 13.5812 42.141 13.8814C41.3646 14.192 39.522 14.2748 38.7457 14.0471C37.7105 13.7365 36.7996 12.9705 36.3441 12.0078L36.075 11.4385L36.0439 8.09492L36.0129 4.76171H26.7068H17.4007L17.3697 8.14668L17.3386 11.542L17.0488 12.1113C16.2207 13.7055 14.5541 14.4922 12.6287 14.2023C11.1898 13.985 10.1857 13.2603 9.58532 12.0078L9.26442 11.335L9.23336 8.04316L9.20231 4.76171H5.92086C3.50895 4.77206 2.5359 4.80312 2.26676 4.90664ZM49.5838 33.6426V49.0664H26.4998H3.41578V33.6426V18.2187H26.4998H49.5838V33.6426Z" fill="#333333"/>
<path d="M27.9078 22.525C27.7629 22.6596 27.7422 23.084 27.7422 25.5063C27.7422 27.7733 27.7732 28.3633 27.8871 28.4565C27.9803 28.5393 28.9947 28.5703 31.3756 28.5496L34.7295 28.5186L34.7605 25.5787C34.7812 23.4981 34.7502 22.5975 34.6674 22.5043C34.5742 22.3905 33.9324 22.3594 31.3031 22.3594C28.4979 22.3594 28.0424 22.3801 27.9078 22.525Z" fill="#333333"/>
<path d="M37.8453 22.525C37.7004 22.6596 37.6797 23.084 37.6797 25.5063C37.6797 27.7733 37.7107 28.3633 37.8246 28.4565C37.9178 28.5393 38.9322 28.5703 41.3131 28.5496L44.667 28.5186L44.698 25.5787C44.7187 23.4981 44.6877 22.5975 44.6049 22.5043C44.5117 22.3905 43.8699 22.3594 41.2406 22.3594C38.4354 22.3594 37.9799 22.3801 37.8453 22.525Z" fill="#333333"/>
<path d="M7.99141 31.1789C7.89824 31.2721 7.86719 32.0484 7.86719 34.1187C7.86719 36.541 7.88789 36.9654 8.03281 37.1C8.16738 37.2449 8.62285 37.2656 11.4281 37.2656C14.0574 37.2656 14.6992 37.2346 14.7924 37.1207C14.8752 37.0275 14.9063 36.127 14.8855 34.0463L14.8545 31.1064L11.4902 31.0754C8.9541 31.0547 8.08457 31.0857 7.99141 31.1789Z" fill="#333333"/>
<path d="M17.9289 31.1789C17.8357 31.2721 17.8047 32.0484 17.8047 34.1187C17.8047 36.541 17.8254 36.9654 17.9703 37.1C18.1049 37.2449 18.5604 37.2656 21.3656 37.2656C23.9949 37.2656 24.6367 37.2346 24.7299 37.1207C24.8127 37.0275 24.8438 36.127 24.823 34.0463L24.792 31.1064L21.4277 31.0754C18.8916 31.0547 18.0221 31.0857 17.9289 31.1789Z" fill="#333333"/>
<path d="M27.8664 31.1789C27.7732 31.2721 27.7422 32.0484 27.7422 34.1187C27.7422 36.541 27.7629 36.9654 27.9078 37.1C28.0424 37.2449 28.4979 37.2656 31.3031 37.2656C33.9324 37.2656 34.5742 37.2346 34.6674 37.1207C34.7502 37.0275 34.7812 36.127 34.7605 34.0463L34.7295 31.1064L31.3652 31.0754C28.8291 31.0547 27.9596 31.0857 27.8664 31.1789Z" fill="#333333"/>
<path d="M37.8039 31.1789C37.7107 31.2721 37.6797 32.0484 37.6797 34.1187C37.6797 36.541 37.7004 36.9654 37.8453 37.1C37.9799 37.2449 38.4354 37.2656 41.2406 37.2656C43.8699 37.2656 44.5117 37.2346 44.6049 37.1207C44.6877 37.0275 44.7187 36.127 44.698 34.0463L44.667 31.1064L41.3027 31.0754C38.7666 31.0547 37.8971 31.0857 37.8039 31.1789Z" fill="#333333"/>
<path d="M7.9716 39.8432C7.81632 40.1434 7.82667 45.5676 7.9923 45.7332C8.08546 45.8264 8.9757 45.8574 11.3462 45.8574C13.1267 45.8574 14.6484 45.8264 14.7415 45.7953C14.8864 45.7436 14.9071 45.3812 14.9071 42.8141C14.9071 40.6816 14.8761 39.8639 14.7829 39.7707C14.6898 39.6775 13.7892 39.6465 11.3669 39.6465C8.23038 39.6465 8.07511 39.6568 7.9716 39.8432Z" fill="#333333"/>
<path d="M17.9091 39.8432C17.7538 40.1434 17.7642 45.5676 17.9298 45.7332C18.023 45.8264 18.9132 45.8574 21.2837 45.8574C23.0642 45.8574 24.5859 45.8264 24.679 45.7953C24.8239 45.7436 24.8446 45.3812 24.8446 42.8141C24.8446 40.6816 24.8136 39.8639 24.7204 39.7707C24.6273 39.6775 23.7267 39.6465 21.3044 39.6465C18.1679 39.6465 18.0126 39.6568 17.9091 39.8432Z" fill="#333333"/>
<path d="M27.9078 39.8121C27.7629 39.9467 27.7422 40.3607 27.7422 42.7105C27.7422 44.4082 27.7836 45.5365 27.8457 45.6607C27.9492 45.8471 28.0941 45.8574 31.21 45.8574C32.9904 45.8574 34.5225 45.8264 34.6156 45.7953C34.7605 45.7436 34.7813 45.3812 34.7813 42.8141C34.7813 40.6816 34.7502 39.8639 34.657 39.7707C34.5639 39.6775 33.6736 39.6465 31.3031 39.6465C28.4979 39.6465 28.0424 39.6672 27.9078 39.8121Z" fill="#333333"/>
<path d="M37.8453 39.8121C37.7004 39.9467 37.6797 40.3607 37.6797 42.7105C37.6797 44.4082 37.7211 45.5365 37.7832 45.6607C37.8867 45.8471 38.0316 45.8574 41.1475 45.8574C42.9279 45.8574 44.46 45.8264 44.5531 45.7953C44.698 45.7436 44.7188 45.3812 44.7188 42.8141C44.7188 40.6816 44.6877 39.8639 44.5945 39.7707C44.5014 39.6775 43.6111 39.6465 41.2406 39.6465C38.4354 39.6465 37.9799 39.6672 37.8453 39.8121Z" fill="#333333"/>
</g>
<defs>
<clipPath id="clip0_17_1168">
<rect width="53" height="53" rx="10" fill="white"/>
</clipPath>
</defs>
</svg>
