<svg width="50" height="46" viewBox="0 0 50 46" fill="none" xmlns="http://www.w3.org/2000/svg">
<g clip-path="url(#clip0_17_1197)">
<path d="M2.76367 0.125786C1.75781 0.422268 0.771484 1.22188 0.3125 2.13829L0.0488281 2.65039L0.0585938 4.89649C0.0585938 7.20547 0.175781 8.47227 0.595703 10.7363C2.80273 22.8113 10.5566 33.341 22.0215 39.8457C23.6914 40.7891 27.1191 42.3793 28.9062 43.0262C34.3457 45.0027 40.3906 46.0809 45.5078 45.982C47.0996 45.9551 47.1289 45.9551 47.7637 45.6676C48.5449 45.3082 49.3164 44.5895 49.6875 43.8707L49.9512 43.3496V38.0938V32.8379L49.6875 32.3168C49.1992 31.3555 48.1152 30.5109 47.0703 30.2863C46.8262 30.2324 45.7715 30.1516 44.7266 30.0977C42.0117 29.9629 39.9219 29.6395 37.7051 29.0016C36.4941 28.6602 35.5957 28.5883 34.7656 28.7859C33.9551 28.9746 33.877 29.0285 30.3906 31.4633L27.4707 33.4938L26.3574 32.9098C21.0059 30.0887 17.373 26.7734 14.3457 21.9309L13.584 20.7359L15.8008 18.0316C17.0215 16.5492 18.1152 15.2106 18.2422 15.0578C18.5742 14.6445 18.8477 13.7281 18.8477 13.0363C18.8477 12.6051 18.75 12.1109 18.5059 11.3563C17.7441 8.99336 17.4219 7.17852 17.2852 4.58204C17.207 2.91094 17.1387 2.57852 16.7188 1.83282C16.4258 1.30274 15.6543 0.655865 14.9414 0.332424L14.3066 0.0449257L8.74023 0.0269585C4.32617 0.00898743 3.08594 0.0359421 2.76367 0.125786Z" fill="#333333"/>
</g>
<defs>
<clipPath id="clip0_17_1197">
<rect width="50" height="46" rx="10" fill="white"/>
</clipPath>
</defs>
</svg>
