<svg width="15" height="13" viewBox="0 0 15 13" fill="none" xmlns="http://www.w3.org/2000/svg">
<g clip-path="url(#clip0_11_77)">
<path d="M0.829102 0.0355492C0.527344 0.119338 0.231445 0.345315 0.09375 0.604299L0.0146484 0.749025L0.0175781 1.38379C0.0175781 2.03633 0.0527344 2.39434 0.178711 3.03418C0.84082 6.44668 3.16699 9.42246 6.60645 11.2607C7.10742 11.5273 8.13574 11.9768 8.67188 12.1596C10.3037 12.7182 12.1172 13.0229 13.6523 12.9949C14.1299 12.9873 14.1387 12.9873 14.3291 12.9061C14.5635 12.8045 14.7949 12.6014 14.9062 12.3982L14.9854 12.251V10.7656V9.28028L14.9062 9.13301C14.7598 8.86133 14.4346 8.62266 14.1211 8.55918C14.0479 8.54395 13.7314 8.5211 13.418 8.50586C12.6035 8.46778 11.9766 8.37637 11.3115 8.1961C10.9482 8.09961 10.6787 8.0793 10.4297 8.13516C10.1865 8.18848 10.1631 8.20371 9.11719 8.8918L8.24121 9.46563L7.90723 9.30059C6.30176 8.50332 5.21191 7.56641 4.30371 6.19785L4.0752 5.86016L4.74023 5.0959C5.10645 4.67696 5.43457 4.29863 5.47266 4.25547C5.57227 4.13867 5.6543 3.87969 5.6543 3.68418C5.6543 3.56231 5.625 3.42266 5.55176 3.20938C5.32324 2.5416 5.22656 2.02871 5.18555 1.29492C5.16211 0.822659 5.1416 0.728713 5.01562 0.517971C4.92773 0.368166 4.69629 0.185353 4.48242 0.0939474L4.29199 0.0126972L2.62207 0.0076189C1.29785 0.00254154 0.925781 0.0101585 0.829102 0.0355492Z" fill="#333333"/>
</g>
<defs>
<clipPath id="clip0_11_77">
<rect width="15" height="13" fill="white"/>
</clipPath>
</defs>
</svg>
