<svg width="61" height="61" viewBox="0 0 61 61" fill="none" xmlns="http://www.w3.org/2000/svg">
<path d="M6.94595 9.04279C6.4813 9.32873 6.3145 9.62658 6.3145 10.1508C6.3145 10.4606 6.61235 11.1635 6.81489 11.3422C6.83872 11.366 13.0579 11.4018 20.6352 11.4375L34.4317 11.4971L34.8129 11.8903C35.1465 12.2119 35.2061 12.3549 35.1823 12.7838C35.1584 13.3795 31.9536 42.4736 31.8582 42.8549L31.8106 43.1289H28.3674H24.9362L24.8647 42.4379C24.5192 39.1854 21.767 36.8264 18.312 36.8145C15.0952 36.8145 11.7354 38.9352 10.3176 41.8779C10.1032 42.3307 9.88872 42.8072 9.85298 42.9145C9.78149 43.117 9.51938 43.1289 6.67192 43.1289C3.3479 43.1289 3.09771 43.1647 2.69263 43.7485C2.32329 44.2727 2.56157 45.3449 3.08579 45.6309C3.22876 45.7024 4.50356 45.75 6.36216 45.75H9.41216V46.2027C9.41216 47.3822 10.1151 49.0264 11.0801 50.0748C11.8188 50.885 12.6051 51.3973 13.725 51.8024C14.9403 52.2313 16.918 52.2551 18.2286 51.8381C20.8973 51.016 22.875 49.3481 24.0426 46.9176L24.6026 45.7619L30.6549 45.75H36.6954V46.0121C36.7073 46.6197 37.0647 47.9541 37.434 48.7047C38.2323 50.3131 39.9479 51.5998 41.878 52.0049C43.8438 52.4219 45.9407 51.993 47.9303 50.8016C49.4077 49.8961 51.1233 47.8588 51.6713 46.3219L51.8739 45.7738L53.375 45.7262C54.7571 45.6904 54.912 45.6666 55.4957 45.333C56.2582 44.916 56.7705 44.368 57.1399 43.5459C57.3663 43.0455 57.4854 42.283 57.8547 38.8994C58.4385 33.3356 58.3789 32.3824 57.2829 30.6549C56.6514 29.6779 48.4664 20.5994 47.7993 20.1586C47.4776 19.9442 46.87 19.6225 46.453 19.4438L45.6905 19.1221L41.4372 19.0863L37.1838 19.0506L37.2315 18.7289C37.4459 17.5018 37.8987 12.7004 37.8391 12.2477C37.6961 10.9729 36.7549 9.68615 35.5754 9.15002L34.9678 8.87599L21.1475 8.84025C7.61313 8.81642 7.31528 8.81642 6.94595 9.04279ZM45.0948 21.8147C45.3569 21.8861 45.7977 22.0887 46.0836 22.2555C46.7627 22.6844 54.7571 31.608 55.1979 32.442C55.3766 32.7756 55.5553 33.3236 55.5911 33.6572C55.6864 34.5151 54.8524 42.2354 54.626 42.5809C54.3639 42.974 53.935 43.1289 53.0772 43.1289C52.3743 43.1289 52.3028 43.1051 52.2551 42.8549C52.2313 42.7119 52.1479 42.2711 52.0764 41.8779C51.7666 40.1623 50.3965 38.3276 48.8715 37.5531C45.5952 35.9209 41.2108 37.0885 38.685 40.2695C38.0178 41.0916 37.1719 42.6166 37.1719 42.974C37.1719 43.0932 36.8502 43.1289 35.8614 43.1289C35.1465 43.1289 34.5508 43.0932 34.5508 43.0336C34.5508 42.8549 36.8145 22.4461 36.8741 22.0649L36.9456 21.6836H40.7819C43.1766 21.6836 44.7969 21.7313 45.0948 21.8147ZM19.8131 39.7453C20.5995 40.0074 21.5883 40.9367 21.9219 41.7231C22.6963 43.5221 22.0887 45.8334 20.385 47.5371C19.5749 48.3473 18.3715 49.0621 17.4184 49.3242C16.5844 49.5387 15.262 49.491 14.5114 49.2051C12.1524 48.3235 11.4018 45.7024 12.7243 43.0098C13.1532 42.1401 14.6186 40.6746 15.5598 40.1742C16.9776 39.4356 18.4907 39.2807 19.8131 39.7453ZM47.3704 39.8406C48.1448 40.1981 48.9192 40.9606 49.2409 41.6873C49.8008 42.9502 49.5864 44.916 48.7166 46.2861C47.4895 48.2639 45.476 49.4434 43.3553 49.4434C41.6516 49.4434 40.4721 48.7524 39.7811 47.3465C38.3395 44.4276 40.8653 40.3649 44.6182 39.5547C45.3688 39.3879 46.6793 39.5309 47.3704 39.8406Z" fill="#BE1522"/>
<path d="M39.9599 24.2928C39.7573 24.4119 39.531 24.674 39.4595 24.8527C39.2927 25.3055 38.6731 33.0139 38.7685 33.4189C38.8161 33.5977 38.9829 33.8717 39.1378 34.0266L39.4237 34.3125H45.4284H51.4212L51.7548 33.9789C52.136 33.5619 52.2671 32.9186 52.0526 32.4896C51.7905 32.0012 44.7851 24.4238 44.4276 24.2332C44.1774 24.1141 43.6175 24.0664 42.2116 24.0664C40.5794 24.0664 40.2815 24.1021 39.9599 24.2928ZM45.3927 29.0941C46.6079 30.4166 47.6206 31.5365 47.6325 31.5961C47.6563 31.6437 46.2743 31.6914 44.5587 31.6914H41.4372L41.5087 31.2387C41.5444 31.0004 41.6278 29.9877 41.6993 29.0107C41.878 26.5207 41.8185 26.6875 42.569 26.6875H43.1886L45.3927 29.0941Z" fill="#BE1522"/>
<path d="M9.4597 16.6678C8.73295 17.1086 8.63763 18.0855 9.25716 18.7289L9.57884 19.0625H11.4374H13.296L13.6296 18.7289C14.0347 18.2881 14.1419 17.6686 13.8917 17.1801C13.5701 16.5486 13.1888 16.4414 11.4136 16.4414C10.0792 16.4414 9.76947 16.4771 9.4597 16.6678Z" fill="#BE1522"/>
<path d="M17.0847 16.6678C16.3579 17.1086 16.2626 18.0855 16.8822 18.7289L17.2038 19.0625H22.1958C25.3888 19.0625 27.2593 19.0148 27.4142 18.9434C27.9384 18.6574 28.1767 17.5852 27.8074 17.0609C27.3785 16.4533 27.2951 16.4414 22.1958 16.4414C17.7638 16.4414 17.4302 16.4533 17.0847 16.6678Z" fill="#BE1522"/>
<path d="M6.94586 24.3047C6.74332 24.4238 6.50504 24.6383 6.44547 24.7693C6.15953 25.3055 6.40973 26.3063 6.89821 26.5684C7.05309 26.6398 8.9236 26.6875 12.1166 26.6875H17.1086L17.4422 26.3539C17.8472 25.9131 17.9545 25.2936 17.7043 24.8051C17.323 24.0664 17.2992 24.0664 12.0689 24.0664C7.58922 24.0664 7.30328 24.0783 6.94586 24.3047Z" fill="#BE1522"/>
<path d="M20.8972 24.2928C20.1704 24.7336 20.0751 25.7105 20.6947 26.3539L21.0163 26.6875H22.8749H24.7335L25.0671 26.3539C25.4722 25.9131 25.5794 25.2936 25.3292 24.8051C25.0076 24.1736 24.6263 24.0664 22.8511 24.0664C21.5167 24.0664 21.207 24.1021 20.8972 24.2928Z" fill="#BE1522"/>
<path d="M4.64648 31.7748C4.55117 31.8105 4.3248 31.9773 4.14609 32.1441C3.87207 32.3943 3.8125 32.5492 3.8125 33.0377C3.8125 33.5143 3.87207 33.6691 4.15801 33.967L4.50352 34.3125H13.3438H22.184L22.5295 33.967C22.8154 33.6691 22.875 33.5143 22.875 33.0377C22.875 32.5373 22.8154 32.3943 22.5057 32.0965L22.1482 31.751L13.4867 31.7271C8.72109 31.7152 4.7418 31.7391 4.64648 31.7748Z" fill="#BE1522"/>
<path d="M3.52651 49.8961C3.12143 50.3369 3.0142 50.9564 3.2644 51.4449C3.59799 52.0883 3.9435 52.1836 6.01654 52.1836C8.00619 52.1836 8.37553 52.1002 8.74486 51.5641C9.1142 51.0398 8.87592 49.9676 8.3517 49.6816C8.20873 49.6102 7.21987 49.5625 5.99272 49.5625H3.8601L3.52651 49.8961Z" fill="#BE1522"/>
<path d="M28.3078 49.8961C27.9027 50.3369 27.7955 50.9565 28.0456 51.4449C28.415 52.1717 28.6056 52.1955 32.2275 52.1598L35.4919 52.1241L35.8494 51.7785C36.1591 51.4807 36.2187 51.3377 36.2187 50.8373C36.2187 50.3608 36.1591 50.2059 35.8732 49.908L35.5277 49.5625H32.0845H28.6413L28.3078 49.8961Z" fill="#BE1522"/>
</svg>
