<svg width="56" height="47" viewBox="0 0 56 47" fill="none" xmlns="http://www.w3.org/2000/svg">
<path d="M3.42344 5.14122C3.10625 5.24036 2.84375 5.36153 2.84375 5.41661C2.84375 5.4827 8.29063 11.0236 14.9625 17.7431L27.0703 29.9484L27.5953 30.0255C28.8094 30.1908 27.8687 31.039 41.1141 17.677C47.7422 10.9905 53.1562 5.47169 53.1562 5.41661C53.1562 5.36153 52.8719 5.22935 52.5219 5.1302C51.9422 4.96497 49.7656 4.95395 27.9344 4.96497C6.66094 4.97598 3.92656 4.987 3.42344 5.14122Z" fill="#333333"/>
<path d="M0.261581 8.17028C0.0647062 8.62192 0.0537686 9.32692 0.0209561 24.5505C-0.000918854 38.4522 0.0209561 40.5342 0.163144 41.0189C0.250644 41.3273 0.370956 41.6578 0.436581 41.7459C0.524081 41.8781 2.25221 40.1927 9.04439 33.352L17.5538 24.7818L9.07721 16.2447C4.41783 11.5521 0.567831 7.70762 0.535019 7.70762C0.491269 7.70762 0.370956 7.91692 0.261581 8.17028Z" fill="#333333"/>
<path d="M46.9219 16.2443L38.4453 24.7814L46.9547 33.3516C53.7469 40.1923 55.475 41.8777 55.5625 41.7455C55.6281 41.6574 55.7484 41.3269 55.8359 41.0185C55.9781 40.5338 56 38.4518 55.9781 24.5501C55.9453 9.32652 55.9344 8.62152 55.7375 8.16988C55.6281 7.91652 55.5078 7.70723 55.4641 7.70723C55.4312 7.70723 51.5813 11.5517 46.9219 16.2443Z" fill="#333333"/>
<path d="M11.2328 35.5771C6.61719 40.2368 2.84375 44.0922 2.84375 44.1473C2.84375 44.2024 3.12812 44.3346 3.47812 44.4337C4.05781 44.5989 6.24531 44.61 28 44.61C49.7547 44.61 51.9422 44.5989 52.5219 44.4337C52.8719 44.3346 53.1562 44.2024 53.1562 44.1473C53.1562 44.0922 49.3719 40.2257 44.7453 35.5441L36.3344 27.04L33.6656 29.6948C31.4125 31.953 30.8984 32.4046 30.2969 32.691C28.8203 33.4181 27.1687 33.4181 25.7141 32.7021C25.1016 32.4046 24.5984 31.964 22.3562 29.7168C20.9125 28.2738 19.6984 27.0951 19.6656 27.0951C19.6437 27.0951 15.8375 30.9065 11.2328 35.5771Z" fill="#333333"/>
</svg>
