<svg width="16" height="16" viewBox="0 0 16 16" fill="none" xmlns="http://www.w3.org/2000/svg">
<path d="M7.14063 0.0437498C6.1875 0.2 5.40313 0.506249 4.64063 1.01562C3.34063 1.88437 2.4375 3.23438 2.10625 4.79688C2.00625 5.25937 1.96875 6.19063 2.02813 6.67812C2.2 8.06875 2.93125 9.7625 4.14063 11.5656C4.6875 12.3781 5.55 13.4906 6.24375 14.2812C6.63438 14.7219 7.45 15.5969 7.66563 15.8062C7.85 15.9812 7.88125 16 8.00625 16C8.1375 16 8.14688 15.9937 8.55313 15.5812C10.0719 14.0281 11.5094 12.2062 12.4125 10.6906C13.275 9.24375 13.7844 7.95312 13.9563 6.78125C14.0313 6.25 14.0031 5.30937 13.8938 4.79688C13.3906 2.41875 11.5844 0.6125 9.20313 0.10625C8.87501 0.0343752 8.7375 0.0218744 8.10938 0.015625C7.61563 0.00624943 7.3125 0.015625 7.14063 0.0437498ZM8.68751 3.35938C8.99688 3.4375 9.48751 3.6875 9.73438 3.89687C10.9594 4.92812 11.0594 6.74062 9.95626 7.9C9.15001 8.74687 7.79375 8.96875 6.75625 8.42188C6.04063 8.04375 5.52813 7.39062 5.34375 6.625C5.25938 6.2625 5.25938 5.7375 5.34375 5.375C5.47813 4.81875 5.82813 4.25937 6.275 3.8875C6.5125 3.69063 7.0125 3.43437 7.3125 3.35625C7.72188 3.25 8.26875 3.25 8.68751 3.35938Z" fill="#BE1522"/>
</svg>
