<svg width="52" height="53" viewBox="0 0 52 53" fill="none" xmlns="http://www.w3.org/2000/svg">
<path d="M23.2078 0.144917C20.1102 0.662495 17.561 1.67695 15.0828 3.36425C10.8578 6.24199 7.92268 10.7139 6.84612 15.8896C6.52112 17.4217 6.39924 20.5064 6.59221 22.1213C7.15081 26.7277 9.52737 32.3383 13.4578 38.3111C15.2352 41.0025 18.0383 44.6877 20.293 47.3066C21.5625 48.7662 24.2133 51.6646 24.9141 52.3582C25.5133 52.9379 25.6149 53 26.0211 53C26.4477 53 26.4782 52.9793 27.7985 51.6129C32.7344 46.4682 37.4063 40.4332 40.3414 35.4127C43.1446 30.6199 44.8 26.3447 45.3586 22.4629C45.6024 20.7031 45.511 17.5873 45.1555 15.8896C43.5203 8.0121 37.65 2.0289 29.911 0.351948C28.8446 0.113861 28.3977 0.0724525 26.3563 0.0517502C24.7516 0.0206947 23.7664 0.0517502 23.2078 0.144917ZM28.2352 11.1279C29.2407 11.3867 30.8352 12.2148 31.6375 12.9084C35.6188 16.3244 35.9438 22.3283 32.3586 26.1687C29.7383 28.974 25.3305 29.709 21.9586 27.8975C19.6328 26.6449 17.9672 24.4814 17.368 21.9453C17.0938 20.7445 17.0938 19.0055 17.368 17.8047C17.8047 15.9621 18.9422 14.1092 20.3946 12.8773C21.1664 12.2252 22.7914 11.3764 23.7664 11.1176C25.0969 10.7656 26.8742 10.7656 28.2352 11.1279Z" fill="#333333"/>
</svg>
