<svg width="16" height="16" viewBox="0 0 16 16" fill="none" xmlns="http://www.w3.org/2000/svg">
<path d="M0.978125 2.42836C0.8875 2.45649 0.8125 2.49086 0.8125 2.50649C0.8125 2.52524 2.36875 4.09711 4.275 6.00336L7.73438 9.46586L7.88438 9.48774C8.23125 9.53461 7.9625 9.77524 11.7469 5.98461C13.6406 4.08774 15.1875 2.52211 15.1875 2.50649C15.1875 2.49086 15.1062 2.45336 15.0063 2.42524C14.8406 2.37836 14.2188 2.37524 7.98125 2.37836C1.90313 2.38149 1.12188 2.38461 0.978125 2.42836Z" fill="#333333"/>
<path d="M0.0747375 3.28745C0.0184875 3.41558 0.0153625 3.61558 0.00598747 7.93433C-0.00026253 11.8781 0.00598747 12.4687 0.0466125 12.6062C0.0716125 12.6937 0.105987 12.7875 0.124737 12.8125C0.149737 12.85 0.643488 12.3718 2.58411 10.4312L5.01536 7.99995L2.59349 5.57808C1.26224 4.24683 0.162237 3.1562 0.152862 3.1562C0.140362 3.1562 0.105987 3.21558 0.0747375 3.28745Z" fill="#333333"/>
<path d="M13.4062 5.57808L10.9844 7.99995L13.4156 10.4312C15.3562 12.3718 15.85 12.85 15.875 12.8125C15.8937 12.7875 15.9281 12.6937 15.9531 12.6062C15.9937 12.4687 16 11.8781 15.9937 7.93433C15.9844 3.61558 15.9812 3.41558 15.925 3.28745C15.8937 3.21558 15.8594 3.1562 15.8469 3.1562C15.8375 3.1562 14.7375 4.24683 13.4062 5.57808Z" fill="#333333"/>
<path d="M3.20938 11.0625C1.89062 12.3844 0.8125 13.4781 0.8125 13.4937C0.8125 13.5094 0.89375 13.5469 0.99375 13.575C1.15938 13.6219 1.78438 13.625 8 13.625C14.2156 13.625 14.8406 13.6219 15.0063 13.575C15.1062 13.5469 15.1875 13.5094 15.1875 13.4937C15.1875 13.4781 14.1062 12.3813 12.7844 11.0531L10.3813 8.64062L9.61875 9.39375C8.975 10.0344 8.82812 10.1625 8.65625 10.2437C8.23438 10.45 7.7625 10.45 7.34688 10.2469C7.17188 10.1625 7.02813 10.0375 6.3875 9.4C5.975 8.99062 5.62813 8.65625 5.61875 8.65625C5.6125 8.65625 4.525 9.7375 3.20938 11.0625Z" fill="#333333"/>
</svg>
