<svg width="34" height="34" viewBox="0 0 34 34" fill="none" xmlns="http://www.w3.org/2000/svg">
<g clip-path="url(#clip0_17_945)">
<path d="M21.2104 0.13282C21.0643 0.205864 20.8518 0.365242 20.7389 0.484772C20.626 0.597664 18.2885 3.56602 15.5393 7.07227L10.5455 13.4406L5.49201 16.834C0.83693 19.9551 0.41857 20.2473 0.239273 20.5461C-0.00642984 20.9445 -0.0728361 21.602 0.0865389 22.0004C0.20607 22.2793 7.57052 33.2762 7.82287 33.5484C8.12834 33.8805 8.52677 34.0133 9.10451 33.9867L9.6092 33.9668L11.2826 32.8512C12.292 32.1805 12.9893 31.7555 13.0358 31.7887C13.0822 31.8152 13.401 32.0543 13.7463 32.3266C14.5764 32.9773 14.7889 33.077 15.3069 33.0836C15.7916 33.0836 16.2033 32.9242 16.5022 32.6188C16.6151 32.5059 17.8834 30.9055 19.3244 29.066L21.9475 25.7258L27.3529 22.1066C30.3279 20.1211 32.8779 18.3945 33.024 18.2684C33.4955 17.85 33.6947 17.1992 33.542 16.6148C33.4955 16.4555 33.0639 15.7383 32.5393 14.9414C32.0279 14.1711 31.6096 13.5137 31.6096 13.4738C31.6096 13.434 32.0877 12.7965 32.6721 12.0527C33.2565 11.309 33.7944 10.5719 33.8674 10.4125C34.133 9.82149 34.0069 9.11758 33.5354 8.62618C33.1635 8.23438 22.9834 0.285553 22.6381 0.119537C22.2861 -0.0464783 21.569 -0.0398369 21.2104 0.13282ZM24.0194 2.50352C25.0354 3.29376 27.3596 5.10665 29.1858 6.52774C31.0119 7.94883 32.6057 9.21055 32.7252 9.33672C33.0772 9.7086 33.044 9.82149 32.1674 10.9371C31.7424 11.475 31.3041 12.0461 31.1846 12.1988C31.0717 12.3516 30.9588 12.4777 30.9389 12.4844C30.919 12.4844 29.7502 10.7777 28.349 8.69258C26.9014 6.52774 25.7194 4.83438 25.5998 4.74805C25.1018 4.38282 24.3713 4.30977 23.86 4.56876C23.3619 4.82774 19.1252 7.70313 19.0588 7.83594C18.9459 8.04844 18.9858 8.23438 19.1916 8.44688C19.4506 8.70586 19.6299 8.67266 20.2342 8.27422L20.6791 7.9754L20.8983 8.23438C21.4361 8.86524 22.5584 9.50938 23.5412 9.76172C24.6236 10.0406 26.0912 9.91446 27.0807 9.4629C27.2799 9.36993 27.4526 9.30352 27.4592 9.31016C27.4658 9.32344 28.0436 10.1801 28.7475 11.216L30.0158 13.102L29.5975 13.5469C29.033 14.1445 28.608 14.8418 28.349 15.6055C28.1565 16.1566 28.1299 16.3426 28.1033 17.1129C28.0701 18.0957 28.1631 18.6734 28.4885 19.457L28.6744 19.9152L20.7986 25.1879L12.9229 30.4606L12.5377 30.082C11.867 29.4113 11.0369 28.9398 10.0608 28.6809C9.65568 28.5746 9.33029 28.5414 8.69943 28.5414C7.80295 28.5414 7.20529 28.6609 6.50138 28.9731L6.12287 29.1391L4.87443 27.2731C4.1838 26.2504 3.60607 25.3871 3.59943 25.3539C3.58615 25.3273 3.7588 25.1148 3.98459 24.8891C5.46545 23.3883 5.93029 20.991 5.11349 19.032C5.00724 18.7797 4.9342 18.5539 4.94748 18.5207C4.9674 18.4941 7.78302 16.5949 11.2096 14.3106C14.6295 12.0195 17.4983 10.0805 17.5846 10.0074C17.9033 9.71524 17.6576 9.09766 17.2127 9.09766C17.0733 9.09766 16.5287 9.42969 15.2338 10.3063C14.251 10.9703 13.4807 11.4684 13.5205 11.4152C15.2869 9.12422 21.3897 1.37461 21.5225 1.2418C21.9143 0.876568 21.974 0.90313 24.0194 2.50352ZM24.7631 5.51837C24.9358 5.57813 25.1416 5.84376 25.8986 6.9793C26.41 7.73633 26.8283 8.37383 26.8283 8.38712C26.8283 8.44024 26.3436 8.61954 25.8986 8.73243C25.3541 8.87188 24.3846 8.87188 23.8334 8.73243C23.601 8.67266 23.2026 8.51993 22.9436 8.4004C22.4522 8.16133 21.6486 7.54375 21.6486 7.4043C21.6486 7.32462 24.099 5.63126 24.3846 5.51837C24.4709 5.47852 24.5373 5.45196 24.544 5.45196C24.5506 5.44532 24.6436 5.47852 24.7631 5.51837ZM31.6029 15.4793C32.4397 16.7211 32.5459 16.9137 32.5127 17.0863C32.4861 17.1992 32.4264 17.3387 32.3666 17.4051C32.2072 17.5844 29.6174 19.2844 29.5776 19.2379C29.5576 19.218 29.4647 18.9988 29.3717 18.7465C29.2389 18.3879 29.1924 18.1356 29.1658 17.5313C29.1326 16.6215 29.2721 15.9707 29.6705 15.2602C29.9096 14.8285 30.5006 14.0781 30.6069 14.0781C30.6334 14.0781 31.085 14.709 31.6029 15.4793ZM4.21701 19.7027C4.71505 21.1637 4.35646 22.8969 3.32716 23.9926L2.94201 24.3977L1.99904 22.9898C1.03615 21.5488 0.956461 21.3629 1.16232 21.0906C1.27521 20.9445 3.84513 19.2047 3.96466 19.1981C4.00451 19.1914 4.1174 19.4238 4.21701 19.7027ZM18.9526 27.7711C18.8662 27.9039 16.283 31.2043 15.951 31.5961C15.6123 32.0012 15.4197 32.1008 15.174 32.0078C14.9881 31.9348 14.0053 31.1844 13.9986 31.1047C13.9986 31.0648 18.8928 27.718 18.9791 27.6981C18.9924 27.6914 18.9791 27.7313 18.9526 27.7711ZM9.80841 29.7234C10.3596 29.8629 10.9506 30.1617 11.4022 30.5203C11.7674 30.8125 11.9932 31.0648 11.9401 31.1113C11.9268 31.118 11.3158 31.5363 10.5787 32.0344C9.15099 32.9906 8.93849 33.077 8.64631 32.818C8.57326 32.7582 8.11506 32.1074 7.61701 31.3703L6.72052 30.0422L7.0924 29.8961C8.00216 29.5508 8.91193 29.491 9.80841 29.7234Z" fill="#BE1522"/>
<path d="M25.3279 12.8496C24.6373 13.3078 24.0197 13.7461 23.9599 13.8258C23.6943 14.1313 23.9467 14.6758 24.3517 14.6758C24.4779 14.6758 24.9361 14.4102 25.7994 13.8391C26.4967 13.3809 27.1009 12.9559 27.1474 12.8961C27.1873 12.8363 27.2271 12.6836 27.2271 12.5508C27.2271 12.2652 27.0877 12.1059 26.7822 12.0461C26.6029 12.0129 26.4302 12.1059 25.3279 12.8496Z" fill="#BE1522"/>
<path d="M15.4327 12.7832C12.8163 13.3809 10.8773 15.3398 10.346 17.923C10.1733 18.7531 10.2065 20.0813 10.419 20.8848C10.5718 21.4691 11.03 22.4719 11.3687 22.9566C11.9929 23.8664 13.1417 24.8094 14.1378 25.2344C14.7554 25.5 15.5722 25.7125 15.778 25.6594C16.0968 25.5797 16.2495 25.0883 16.0503 24.8094C16.0038 24.7496 15.705 24.6234 15.3796 24.5305C12.8296 23.8133 11.1761 21.5555 11.3089 18.9656C11.3819 17.4648 11.9331 16.2762 13.0355 15.2336C15.4858 12.8961 19.4702 13.3477 21.3495 16.1633C22.4585 17.8301 22.598 19.7492 21.748 21.5488C21.1304 22.8703 20.1343 23.8 18.7597 24.3379C18.4343 24.4641 18.1155 24.6168 18.0491 24.6832C17.7636 24.9422 18.0292 25.5664 18.421 25.5664C18.6202 25.5664 19.2776 25.3273 19.789 25.0684C21.0839 24.4176 22.1862 23.2555 22.7905 21.9273C23.1757 21.0707 23.3284 20.3336 23.3284 19.2578C23.3284 18.5938 23.2952 18.1422 23.2222 17.8168C22.6776 15.4461 20.9577 13.6133 18.6136 12.9094C18.1023 12.7566 17.8898 12.7301 16.9335 12.7102C16.1698 12.6969 15.7183 12.7168 15.4327 12.7832Z" fill="#BE1522"/>
<path d="M14.0451 15.4395C13.8458 15.632 13.8392 15.8312 14.0185 16.1301L14.1513 16.3559L13.9388 16.7941C13.5205 17.6375 13.6798 18.5738 14.3439 19.1383C14.6892 19.4371 14.9947 19.5234 15.7119 19.5234H16.3029L16.9669 20.5262C17.3322 21.0773 17.6376 21.5555 17.6509 21.582C17.6841 21.6617 17.2724 21.7812 16.9669 21.7812C16.5552 21.7812 16.3361 21.9738 16.3361 22.3391C16.3361 22.7441 16.4689 22.8438 17.0068 22.8438C17.2724 22.8438 17.5978 22.784 17.8767 22.691L18.3283 22.5383L18.4943 22.7906C18.6404 23.0098 18.6935 23.043 18.9126 23.043C19.4439 23.043 19.663 22.6312 19.3642 22.1797C19.2712 22.0336 19.1915 21.9074 19.1915 21.8875C19.1915 21.8742 19.2912 21.7082 19.4173 21.5289C20.1013 20.5062 19.7294 18.9324 18.6869 18.4211C18.2685 18.2152 17.5513 18.1422 17.0865 18.2484L16.8009 18.3148L16.2431 17.5047C15.9376 17.0664 15.6986 16.6879 15.7052 16.6812C15.7185 16.668 15.9044 16.648 16.1169 16.6348C16.4158 16.6148 16.5287 16.575 16.615 16.4621C16.781 16.2629 16.7677 15.9043 16.5951 15.7316C16.4689 15.6055 16.4025 15.5988 15.9177 15.6254C15.6189 15.6453 15.3001 15.6785 15.2072 15.7051C15.0677 15.7383 15.0146 15.7051 14.8884 15.5059C14.7622 15.3 14.7091 15.2734 14.4701 15.2734C14.2775 15.2734 14.158 15.3199 14.0451 15.4395ZM15.4662 18.5141C15.1142 18.5738 14.6958 17.9828 14.7755 17.5512L14.8154 17.3121L15.2138 17.9031C15.579 18.4477 15.5923 18.4941 15.4662 18.5141ZM18.0228 19.2844C18.5142 19.4902 18.7997 20.068 18.6603 20.5859C18.6205 20.732 18.5673 20.8516 18.5341 20.8516C18.4478 20.8516 17.4583 19.3242 17.4982 19.2578C17.558 19.1648 17.7638 19.1781 18.0228 19.2844Z" fill="#BE1522"/>
<path d="M7.77016 24.6035C7.09282 25.0617 6.48852 25.4934 6.42876 25.573C6.16313 25.8918 6.40219 26.3633 6.83384 26.3633C7.04634 26.3633 7.2854 26.2305 8.35454 25.5133C9.71587 24.6102 9.82212 24.4973 9.68266 24.1055C9.64946 23.9926 9.56313 23.873 9.49673 23.8398C9.21118 23.6871 9.00532 23.7801 7.77016 24.6035Z" fill="#BE1522"/>
</g>
<defs>
<clipPath id="clip0_17_945">
<rect width="34" height="34" fill="white"/>
</clipPath>
</defs>
</svg>
