<svg width="61" height="61" viewBox="0 0 61 61" fill="none" xmlns="http://www.w3.org/2000/svg">
<path d="M34.8485 0.142975C33.812 0.524227 32.9065 1.45352 32.1917 2.84747C31.4173 4.34864 31.0003 5.9213 30.4165 9.47169L30.0829 11.5328L29.5825 11.6162C29.0464 11.6877 16.8106 16.3223 16.3698 16.6082C15.929 16.9061 15.369 17.5256 15.1427 17.9783C14.5231 19.2055 2.4661 48.5022 2.37079 49.0264C2.23973 49.7412 2.3827 50.6467 2.72821 51.3258C3.20477 52.2551 3.95536 52.7674 6.23095 53.7086C7.38661 54.1732 8.47079 54.5664 8.63759 54.5664C9.34052 54.5664 9.78134 53.5775 9.3286 53.0414C9.20946 52.8984 8.23251 52.4338 7.14833 51.993C4.57489 50.9326 4.16981 50.5752 4.27704 49.36C4.28895 49.217 7.11259 42.2949 10.5557 33.9908C15.6788 21.6359 16.8821 18.8123 17.1919 18.5145C17.5016 18.2047 18.7169 17.7043 23.554 15.8576C26.8423 14.6066 29.5944 13.582 29.6659 13.582C29.7731 13.582 29.785 13.7965 29.7255 14.3207C29.6182 15.3811 29.5825 15.4645 29.1536 15.5598C28.1886 15.7623 27.2116 16.5963 26.9138 17.466C26.8304 17.7281 26.7589 18.2523 26.7589 18.6455C26.7708 20.3492 28.0575 21.6002 29.785 21.6002C30.6786 21.6002 31.2147 21.4096 31.8581 20.8496C32.561 20.2182 32.8231 19.6344 32.8231 18.5859C32.8231 17.5375 32.5968 16.9895 31.9057 16.3342L31.453 15.8934L31.6079 14.7854L31.7509 13.6893L32.287 14.0467C32.5849 14.2492 32.9423 14.5828 33.0972 14.8092C33.2401 15.0356 34.5983 17.8711 36.0995 21.1236C38.2083 25.6867 38.8397 27.1522 38.8397 27.5215C38.8397 27.867 37.279 31.751 32.7516 42.6762C29.4157 50.7539 26.5444 57.6402 26.3776 57.9857C26.0321 58.7125 25.4841 59.1057 24.8169 59.1176C24.4833 59.1176 22.7438 58.4504 18.5739 56.7229C15.3809 55.4123 12.7241 54.3281 12.6526 54.3281C12.1641 54.3281 11.6757 54.8643 11.6757 55.4004C11.6757 55.9365 12.2237 56.2106 17.9306 58.5695C23.28 60.7736 23.7089 60.9285 24.5309 60.9762C25.0194 61 25.6032 60.9643 25.8415 60.9047C26.5563 60.6783 27.3903 60.0826 27.7477 59.5107C27.9384 59.2129 28.6413 57.6283 29.3204 55.9961C29.9995 54.3639 30.5952 53.0652 30.6429 53.1129C30.6905 53.1606 31.2624 54.352 31.9296 55.7578C33.6095 59.332 33.5975 59.3082 34.1098 59.7729C34.8723 60.452 35.5276 60.6902 36.6356 60.6902C37.3386 60.6783 37.7317 60.6188 38.1249 60.44C39.6261 59.7609 55.8173 52.1598 56.4368 51.85C57.3899 51.3615 57.795 51.0041 58.1763 50.3012C58.6052 49.5149 58.772 48.5856 58.629 47.8111C58.486 47.0606 48.8237 26.3539 48.4663 26.0561C47.9182 25.5914 46.9413 26.0441 46.9413 26.759C46.9413 26.9258 49.1454 31.7629 51.838 37.5055C57.1755 48.9072 57.0325 48.5379 56.4487 49.4076C56.1628 49.8365 55.5909 50.1225 46.6792 54.3043C41.4608 56.7348 37.0407 58.7721 36.8501 58.8078C36.3974 58.9031 35.48 58.51 35.2179 58.1168C34.9557 57.7117 31.6556 50.6229 31.6556 50.468C31.6556 50.3965 33.6929 45.4522 36.171 39.4951L40.6864 28.6533V27.5215V26.3897L38.2083 21.0522C36.8382 18.1094 35.7421 15.6789 35.7778 15.6551C35.885 15.5479 42.0089 17.5613 42.3663 17.8234C42.6403 18.026 43.0335 18.7289 44.0104 20.8139C44.7134 22.3031 45.3686 23.6256 45.4759 23.7328C45.7499 24.0307 46.5124 24.0188 46.8222 23.709C46.9532 23.5779 47.0604 23.3158 47.0604 23.1133C47.0604 22.6486 44.5823 17.3588 44.0938 16.775C43.8913 16.5248 43.4862 16.1912 43.2122 16.0363C42.9382 15.8815 40.9724 15.2024 38.8397 14.5352C36.7071 13.868 34.9557 13.308 34.9319 13.2842C34.92 13.2723 35.3608 12.5217 35.9208 11.6043C37.1837 9.567 38.4942 7.01739 38.8874 5.81407C39.3163 4.5631 39.3997 3.467 39.1495 2.50196C38.8993 1.52501 38.4942 0.941219 37.7317 0.452744C37.1837 0.107235 37.0169 0.0595779 36.1591 0.0357513C35.6348 0.0238342 35.0511 0.0714912 34.8485 0.142975ZM36.6237 2.04922C37.7794 2.56153 37.6126 4.33673 36.1829 7.18419C35.3966 8.73302 33.8835 11.3422 33.3831 11.9975L33.1806 12.2715L32.6206 12.0094C32.2513 11.8426 32.0487 11.6758 32.0487 11.5328C32.0487 11.092 32.7636 7.16036 33.0495 6.02852C33.8358 2.97852 35.2417 1.40587 36.6237 2.04922ZM30.5714 17.7996C31.0479 18.2762 31.1075 18.7527 30.7382 19.2055C30.1425 19.968 29.1179 19.8488 28.7485 18.9791C28.5817 18.5621 28.5817 18.5025 28.7843 18.1094C29.2132 17.3111 29.9518 17.1801 30.5714 17.7996Z" fill="#BE1522"/>
<path d="M21.2666 27.3547C18.705 27.724 16.7511 28.6652 15.107 30.2975C13.1888 32.2156 12.2238 34.6461 12.2357 37.4697C12.2714 42.0805 15.1308 45.7977 19.6343 47.0963C20.8496 47.4418 23.5898 47.4656 24.7812 47.132C26.8066 46.584 28.832 45.2615 30.083 43.6889C30.7859 42.8072 31.4531 41.6277 31.4531 41.2584C31.4531 40.9367 31.1195 40.5078 30.7621 40.3768C30.2379 40.1742 29.8328 40.4483 29.4039 41.2703C28.9154 42.1758 27.2355 43.9033 26.33 44.4156C25.2339 45.0233 23.8996 45.4164 22.6367 45.476C21.1355 45.5594 20.0394 45.3211 18.5859 44.6063C16.1793 43.4149 14.5589 41.1035 14.1777 38.3156C13.8203 35.7541 14.9879 32.859 17.0966 31.0957C17.7996 30.5119 19.5748 29.6303 20.4922 29.4158C21.3976 29.2014 23.2443 29.2252 24.1855 29.4635C27.5214 30.3213 30.0949 33.3236 30.3451 36.6358C30.3689 37.0885 30.4523 37.6127 30.5238 37.7914C30.7502 38.399 31.7271 38.5063 32.1084 37.9701C32.4777 37.4459 32.2394 35.3729 31.6318 33.7764C30.5119 30.774 27.9027 28.4508 24.7693 27.6525C23.8519 27.4143 21.9457 27.2594 21.2666 27.3547Z" fill="#BE1522"/>
<path d="M23.018 32.168C22.9107 32.299 22.7559 32.6088 22.6844 32.8471C22.5652 33.2641 22.5295 33.2879 21.8027 33.4428C20.0037 33.8002 19.1697 35.4444 19.968 37.0408C20.3373 37.7795 20.8377 38.1369 21.898 38.4348C22.7559 38.6612 23.1014 39.0067 22.8869 39.4237C22.6844 39.793 22.4104 39.8049 21.4453 39.507C20.6471 39.2449 20.5518 39.1854 20.4684 38.8518C20.2896 38.1727 19.4795 37.8987 18.9314 38.3514C18.6932 38.542 18.6455 38.685 18.6455 39.2926C18.6455 40.2338 19.0506 40.7699 20.0275 41.1274C20.0752 41.1512 20.0633 41.4133 19.9918 41.7112C19.7654 42.6762 20.0752 43.1766 20.8854 43.1528C21.3381 43.1408 21.6479 42.843 21.8266 42.2592C21.898 42.009 22.0291 41.7826 22.0887 41.7588C22.1602 41.735 22.5295 41.6635 22.9227 41.5801C24.3643 41.2822 25.1625 39.9121 24.7336 38.4586C24.4715 37.5531 23.9115 37.0647 22.6605 36.6477C22.1363 36.469 21.6717 36.2426 21.6359 36.1473C21.5049 35.8137 21.5645 35.635 21.8385 35.4444C22.0887 35.2895 22.1959 35.3014 23.0895 35.5754C23.9592 35.8375 24.0664 35.8971 24.0664 36.1592C24.0664 36.5524 24.5072 36.9336 24.96 36.9336C25.782 36.9336 26.1752 36.0162 25.782 35.0393C25.5914 34.5865 25.4484 34.4436 24.9838 34.2053C24.5072 33.967 24.4119 33.8836 24.4715 33.6692C24.6859 32.8828 24.6859 32.585 24.4238 32.2514C24.1021 31.8463 23.3516 31.7987 23.018 32.168Z" fill="#BE1522"/>
<path d="M45.1543 34.4317C45.0232 34.5627 44.916 34.8248 44.916 35.0274C44.916 35.2537 46.024 37.7676 47.8588 41.6635C50.6109 47.5014 50.8373 47.9422 51.1947 48.0852C51.8023 48.3473 52.541 47.8945 52.541 47.2631C52.541 46.9891 46.7627 34.6938 46.5006 34.4078C46.2266 34.11 45.4641 34.1219 45.1543 34.4317Z" fill="#BE1522"/>
<path d="M41.1154 36.6477C40.9725 36.8264 40.8652 37.0647 40.8652 37.1838C40.8652 37.4578 46.6436 49.777 46.9057 50.0629C47.1797 50.3608 47.9422 50.3489 48.252 50.0391C48.383 49.908 48.4902 49.6459 48.4902 49.4315C48.4902 49.0145 42.7477 36.7192 42.4498 36.4809C42.3426 36.4094 42.0447 36.3379 41.8064 36.3379C41.4609 36.3379 41.3061 36.4094 41.1154 36.6477Z" fill="#BE1522"/>
</svg>
