<svg width="61" height="61" viewBox="0 0 61 61" fill="none" xmlns="http://www.w3.org/2000/svg">
<path d="M28.0575 1.0246C19.3483 2.28749 12.7837 8.80449 11.5565 17.3945C11.3421 18.86 11.4017 21.6717 11.6638 23.2324C12.1284 25.925 13.3317 28.8797 14.8448 31.0004C15.238 31.5365 16.1196 32.573 16.8345 33.3117L18.1093 34.6342V47.1082C18.1093 59.4154 18.1093 59.5703 18.3476 59.8086C18.5024 59.9635 18.7407 60.0469 19.0624 60.0469C19.5151 60.0469 19.813 59.8205 24.9122 55.5672C27.855 53.1129 30.345 51.0756 30.4284 51.0398C30.5118 51.0041 33.0257 53.0176 36.028 55.5076C41.1868 59.8205 41.4847 60.0469 41.9374 60.0469C42.2591 60.0469 42.4974 59.9635 42.6523 59.8086C42.8905 59.5703 42.8905 59.4154 42.8905 47.0844V34.6103L43.8556 33.6572C46.8698 30.6787 48.7403 27.0568 49.3837 22.9227C49.6935 21.0164 49.5743 17.5852 49.1692 15.8457C47.3941 8.42324 42.1042 3.12148 34.6698 1.34629C33.5857 1.08418 33.0972 1.04844 30.9169 1.01269C29.5468 0.988865 28.2601 1.00078 28.0575 1.0246ZM31.739 2.97851C39.3878 3.59804 45.5831 9.03086 47.2392 16.5605C47.537 17.9187 47.6085 21.1117 47.3821 22.5771C46.8698 25.782 45.4997 28.7367 43.3909 31.1791C38.661 36.6357 30.9288 38.5539 24.2569 35.8971C19.0982 33.8479 15.369 29.6064 13.9036 24.0902C13.5462 22.732 13.5343 22.6248 13.5343 20.0752C13.5224 17.5852 13.5343 17.3826 13.856 16.1436C15.0474 11.4613 17.8472 7.66074 21.8503 5.30175C23.9829 4.05078 26.6636 3.18105 29.0464 2.99043C29.6778 2.93085 30.2021 2.8832 30.214 2.87128C30.2259 2.87128 30.905 2.91894 31.739 2.97851ZM21.0282 36.6L21.9218 37.1123L21.886 46.2742L21.8622 55.4242L20.9448 56.1986L20.0155 56.973V46.5363C20.0155 40.7937 20.0394 36.0996 20.0751 36.0996C20.1108 36.0996 20.5398 36.326 21.0282 36.6ZM40.9843 46.5244V56.9611L40.0312 56.1629L39.078 55.3646V46.2385V37.1123L39.9478 36.6119C40.4124 36.3379 40.8413 36.1115 40.9009 36.1115C40.9485 36.0996 40.9843 40.7937 40.9843 46.5244ZM25.8058 38.5301C27.5691 38.9709 28.5103 39.0781 30.5118 39.0781C32.573 39.0781 34.1575 38.8637 35.897 38.3514C36.5523 38.1488 37.1003 38.0178 37.1241 38.0416C37.148 38.0654 37.1599 41.6039 37.148 45.9049L37.1122 53.7205L34.0384 51.159C31.179 48.7881 30.9407 48.6094 30.4999 48.6094C30.0591 48.6094 29.8208 48.7762 27.1401 51.0041C25.5437 52.3266 24.1497 53.4941 24.0425 53.5895C23.8399 53.7562 23.828 53.375 23.828 45.8334V37.8986L24.2212 38.0654C24.4357 38.1488 25.1505 38.3633 25.8058 38.5301Z" fill="#BE1522"/>
<path d="M27.5332 5.96892C22.2077 7.08884 18.0139 11.1039 16.5961 16.4414C16.1434 18.1093 16.0719 21.0998 16.4412 22.8631C17.6088 28.5699 21.9455 32.9066 27.6524 34.0742C29.4157 34.4435 32.4061 34.372 34.0741 33.9193C39.4473 32.5015 43.4623 28.272 44.5465 22.9107C44.8563 21.4215 44.8801 18.991 44.618 17.4422C43.5934 11.6162 38.8993 6.92205 33.0733 5.89744C31.5602 5.63533 28.951 5.67107 27.5332 5.96892ZM32.8946 7.92283C33.6332 8.0658 35.194 8.60193 35.8969 8.95935C39.1018 10.5558 41.2702 13.165 42.3782 16.7511C42.676 17.74 42.6998 17.9545 42.6998 20.0156C42.6998 22.0767 42.676 22.2912 42.3782 23.292C40.1145 30.7144 32.2155 34.3482 25.3053 31.1552C22.1004 29.6779 19.7176 26.8662 18.6215 23.292C18.3237 22.2912 18.2998 22.0767 18.2998 20.0156C18.2998 17.9545 18.3237 17.74 18.6215 16.7511C19.9559 12.4263 22.994 9.40017 27.2354 8.16111C28.82 7.69646 31.2743 7.58923 32.8946 7.92283Z" fill="#BE1522"/>
<path d="M28.4864 11.4971C26.1751 12.1643 25.0552 12.5455 24.9361 12.7004C24.8169 12.8553 24.7812 13.4867 24.7812 15.2738C24.7812 17.4779 24.7931 17.6447 25.0195 17.8711C25.1743 18.026 25.4126 18.1094 25.7105 18.1094C25.9726 18.1094 26.4849 18.0021 26.8661 17.8711C27.2474 17.74 27.581 17.6328 27.6048 17.6328C27.6167 17.6328 27.6405 19.0268 27.6405 20.7305V23.8281H26.4491C24.7097 23.8281 24.7812 23.709 24.7812 26.6875C24.7812 28.9154 24.7931 29.0822 25.0195 29.3086C25.2458 29.535 25.4126 29.5469 30.4999 29.5469C35.5872 29.5469 35.754 29.535 35.9804 29.3086C36.2068 29.0822 36.2187 28.9154 36.2187 26.6875C36.2187 23.709 36.2902 23.8281 34.5507 23.8281H33.3593V17.3945C33.3593 11.1158 33.3593 10.9609 33.121 10.7227C32.7279 10.3295 32.1083 10.4367 28.4864 11.4971ZM31.739 25.5676C31.9058 25.6867 32.3228 25.7344 33.1448 25.7344H34.3124V26.6875V27.6406H30.4999H26.6874V26.6875V25.7344H27.8788C29.7017 25.7344 29.5468 26.2109 29.5468 20.4922C29.5468 15.8814 29.5349 15.7146 29.3085 15.4883C29.1536 15.3334 28.9154 15.25 28.6175 15.25C28.3554 15.25 27.8431 15.3572 27.4618 15.4883C27.0806 15.6193 26.747 15.7266 26.7232 15.7266C26.7113 15.7266 26.6874 15.3691 26.6874 14.9164V14.1182L29.0464 13.451L31.3935 12.7838L31.453 19.0863C31.5126 25.1625 31.5245 25.4008 31.739 25.5676Z" fill="#BE1522"/>
</svg>
