<svg width="30" height="30" viewBox="0 0 30 30" fill="none" xmlns="http://www.w3.org/2000/svg">
<g clip-path="url(#clip0_17_214)">
<path d="M13.066 0.0932045C7.07777 0.860783 2.10316 5.19672 0.497689 11.0444C0.151986 12.3159 0.0465174 13.06 0.0172205 14.5776C-0.0179357 16.0717 0.0347986 16.81 0.269174 17.9643C1.04261 21.8784 3.39808 25.3588 6.76722 27.5737C8.70667 28.8452 10.8336 29.6245 13.1832 29.9174C14.0739 30.0288 15.9489 30.0229 16.8746 29.9116C21.2575 29.3666 25.1715 26.9116 27.6149 23.1733C28.8453 21.2924 29.6305 19.1303 29.9118 16.8745C30.0289 15.9252 30.0289 14.0737 29.9118 13.1245C29.3727 8.76508 26.9293 4.85688 23.2321 2.42524C21.3043 1.15961 19.1598 0.374454 16.8746 0.0873451C15.9782 -0.023983 13.9391 -0.0181236 13.066 0.0932045ZM22.1422 9.25727C22.3414 9.46235 22.4118 9.73774 22.359 10.0952C22.236 10.851 19.8453 21.978 19.7633 22.1655C19.6403 22.4467 19.3766 22.6752 19.1715 22.6752C18.8785 22.6694 18.5446 22.4584 16.7399 21.1284C15.7438 20.3959 14.8942 19.7807 14.8473 19.7631C14.7946 19.7455 14.3961 20.0913 13.7633 20.6889C12.7086 21.7026 12.6852 21.7202 12.4215 21.7963C12.2633 21.8432 12.2575 21.8373 12.2809 21.6264C12.2926 21.5092 12.3453 20.7944 12.3922 20.0385C12.4391 19.2827 12.4977 18.5268 12.5153 18.3569L12.5446 18.0522L16.0602 14.8823C18.2985 12.8549 19.57 11.6713 19.57 11.601C19.57 11.4487 19.3825 11.4018 19.1481 11.5014C19.0426 11.5483 17.027 12.8022 14.6715 14.2846L10.3883 16.9799L8.90003 16.517C8.07972 16.2592 7.19495 15.9838 6.93714 15.9018C6.15785 15.6674 5.95863 15.3569 6.3512 15.0112C6.46839 14.9116 6.89027 14.7065 7.38831 14.5131C7.8512 14.3315 11.1969 13.0366 14.8239 11.6362C19.9743 9.64985 21.4743 9.08735 21.691 9.08735C21.9196 9.08149 21.9899 9.11078 22.1422 9.25727Z" fill="#333333"/>
</g>
<defs>
<clipPath id="clip0_17_214">
<rect width="30" height="30" fill="white"/>
</clipPath>
</defs>
</svg>
