<svg width="16" height="16" viewBox="0 0 16 16" fill="none" xmlns="http://www.w3.org/2000/svg">
<path d="M7.14087 0.0437508C6.18775 0.200001 5.40337 0.506251 4.64087 1.01563C3.34087 1.88438 2.43775 3.23438 2.1065 4.79688C2.0065 5.25938 1.969 6.19063 2.02837 6.67813C2.20025 8.06875 2.9315 9.7625 4.14087 11.5656C4.68775 12.3781 5.55025 13.4906 6.244 14.2813C6.63462 14.7219 7.45025 15.5969 7.66587 15.8063C7.85025 15.9813 7.8815 16 8.0065 16C8.13775 16 8.14712 15.9938 8.55337 15.5813C10.0721 14.0281 11.5096 12.2063 12.4127 10.6906C13.2752 9.24375 13.7846 7.95313 13.9565 6.78125C14.0315 6.25 14.0034 5.30938 13.894 4.79688C13.3909 2.41875 11.5846 0.612501 9.20337 0.106251C8.87525 0.0343761 8.73775 0.0218763 8.10962 0.015626C7.61587 0.00625134 7.31275 0.015626 7.14087 0.0437508ZM8.68775 3.35938C8.99712 3.4375 9.48775 3.6875 9.73462 3.89688C10.9596 4.92813 11.0596 6.74063 9.9565 7.9C9.15025 8.74688 7.794 8.96875 6.7565 8.42188C6.04087 8.04375 5.52837 7.39063 5.344 6.625C5.25962 6.2625 5.25962 5.7375 5.344 5.375C5.47837 4.81875 5.82837 4.25938 6.27525 3.8875C6.51275 3.69063 7.01275 3.43438 7.31275 3.35625C7.72212 3.25 8.269 3.25 8.68775 3.35938Z" fill="#333333"/>
</svg>
