<svg width="28" height="28" viewBox="0 0 28 28" fill="none" xmlns="http://www.w3.org/2000/svg">
<g clip-path="url(#clip0_11_107)">
<path d="M12.2227 0.0824337C9.6961 0.410559 7.38282 1.37853 5.35938 2.94259C4.71954 3.44025 3.63126 4.51212 3.10079 5.16837C1.59141 7.03868 0.59063 9.24806 0.164068 11.6543C0.0109429 12.5074 -0.0492133 14.5582 0.0492242 15.4934C0.497662 19.6824 2.81094 23.4504 6.3711 25.7746C8.14297 26.9285 10.1391 27.6559 12.3047 27.9238C13.1359 28.0277 14.8859 28.0223 15.75 27.9184C22.0938 27.1309 27.1305 22.0942 27.918 15.7504C28.0273 14.8645 28.0273 13.1363 27.918 12.2504C27.4148 8.18165 25.1344 4.534 21.6836 2.26447C19.8844 1.08322 17.8828 0.350403 15.75 0.0824337C14.9188 -0.0160046 13.0102 -0.0160046 12.2227 0.0824337ZM15.8758 5.57853C19.6656 6.31681 22.4547 9.54337 22.6242 13.3988C22.7336 15.8598 21.8203 18.091 19.9992 19.8301C17.5492 22.1707 13.8852 22.7777 10.8227 21.3449L10.2977 21.0988L8.11563 21.6731C6.91797 21.9848 5.92813 22.2363 5.91719 22.2309C5.90626 22.2254 6.16329 21.2629 6.48047 20.0981L7.06563 17.9762L6.78672 17.3965C6.22344 16.1988 6.0211 15.3621 5.97735 14.0277C5.95547 13.2457 5.96641 12.9942 6.05938 12.4418C6.70469 8.67931 9.71251 5.8629 13.5352 5.44728C14.0219 5.39806 15.3016 5.46368 15.8758 5.57853Z" fill="#BE1522"/>
<path d="M13.3547 6.83609C10.7078 7.20797 8.50938 9.04547 7.65625 11.583C7.42656 12.2666 7.32812 12.9228 7.32812 13.7541C7.32812 15.1431 7.63984 16.2806 8.34531 17.4509L8.52578 17.7517L8.17578 19.0314C7.98438 19.7369 7.83125 20.3166 7.84219 20.3275C7.84766 20.333 8.44375 20.1853 9.16016 19.9994L10.4672 19.6548L10.9758 19.9173C12.0859 20.5025 13.032 20.7377 14.3008 20.7377C15.2031 20.7377 15.9031 20.6283 16.6359 20.3658C18.7086 19.622 20.3055 17.9595 20.9672 15.8595C21.2078 15.0994 21.2898 14.4595 21.257 13.508C21.2188 12.3923 21.0328 11.6377 20.568 10.6916C19.6055 8.75562 17.9156 7.42125 15.8047 6.94C15.2688 6.81422 13.9016 6.75953 13.3547 6.83609ZM12.0531 10.0736C12.1953 10.2869 12.8516 11.9166 12.8516 12.0423C12.8516 12.1134 12.7039 12.365 12.5234 12.6056C12.3266 12.8681 12.1953 13.0978 12.1953 13.1798C12.1953 13.5189 13.1633 14.6783 13.8578 15.1759C14.2789 15.4712 15.0281 15.8541 15.2742 15.8978C15.4438 15.9252 15.4766 15.8978 15.7281 15.608C15.8813 15.4275 16.0836 15.1814 16.182 15.0502C16.2969 14.908 16.4063 14.8205 16.4773 14.8205C16.543 14.8205 17.0188 15.0283 17.5328 15.2798C18.2 15.6025 18.4844 15.772 18.5117 15.8541C18.55 15.9853 18.468 16.483 18.3586 16.7455C18.1672 17.2048 17.3742 17.697 16.7234 17.7572C16.2695 17.7955 15.832 17.7134 15.1484 17.4619C14.4594 17.2048 13.8578 16.9041 13.3492 16.5541C12.8352 16.2041 11.6156 15.0009 11.1781 14.4103C10.3688 13.3111 10.0898 12.6548 10.0898 11.84C10.0953 11.2658 10.2102 10.9322 10.5766 10.4509C10.8938 10.0298 11.0414 9.95328 11.55 9.95328C11.9273 9.95328 11.982 9.96422 12.0531 10.0736Z" fill="#BE1522"/>
</g>
<defs>
<clipPath id="clip0_11_107">
<rect width="28" height="28" fill="white"/>
</clipPath>
</defs>
</svg>
