<svg width="30" height="30" viewBox="0 0 30 30" fill="none" xmlns="http://www.w3.org/2000/svg">
<g clip-path="url(#clip0_17_210)">
<path d="M13.0956 0.0883217C10.3886 0.439884 7.91007 1.47699 5.74211 3.15277C5.05656 3.68598 3.89054 4.83442 3.32218 5.53754C1.705 7.54145 0.632731 9.90863 0.1757 12.4868C0.0116374 13.4008 -0.0528158 15.5981 0.052653 16.6C0.533122 21.0883 3.01164 25.1254 6.82609 27.6157C8.72453 28.852 10.8632 29.6313 13.1835 29.9184C14.0741 30.0297 15.9491 30.0239 16.8749 29.9125C23.6718 29.0688 29.0683 23.6723 29.912 16.8754C30.0292 15.9262 30.0292 14.0746 29.912 13.1254C29.373 8.76606 26.9296 4.85785 23.2323 2.42621C21.3046 1.16059 19.1601 0.375431 16.8749 0.0883217C15.9843 -0.0171471 13.9394 -0.0171471 13.0956 0.0883217ZM17.0097 5.97699C21.0702 6.76801 24.0585 10.225 24.2402 14.3559C24.3573 16.9926 23.3788 19.3832 21.4277 21.2465C18.8027 23.7543 14.8769 24.4047 11.5956 22.8696L11.0331 22.6059L8.69523 23.2211C7.41203 23.5551 6.35148 23.8246 6.33976 23.8188C6.32804 23.8129 6.60343 22.7817 6.94328 21.5336L7.57023 19.2602L7.2714 18.6391C6.66789 17.3559 6.45109 16.4594 6.40422 15.0297C6.38078 14.1918 6.3925 13.9223 6.49211 13.3305C7.18351 9.29926 10.4062 6.28168 14.5019 5.83637C15.0234 5.78363 16.3945 5.85395 17.0097 5.97699Z" fill="#333333"/>
<path d="M14.3086 7.32434C11.4727 7.72278 9.11719 9.69153 8.20312 12.4103C7.95703 13.1427 7.85156 13.8458 7.85156 14.7365C7.85156 16.2247 8.18555 17.4435 8.94141 18.6974L9.13477 19.0197L8.75977 20.3907C8.55469 21.1466 8.39062 21.7677 8.40234 21.7794C8.4082 21.7853 9.04688 21.6271 9.81445 21.4279L11.2148 21.0587L11.7598 21.34C12.9492 21.9669 13.9629 22.2189 15.3223 22.2189C16.2891 22.2189 17.0391 22.1017 17.8242 21.8204C20.0449 21.0236 21.7559 19.2423 22.4648 16.9923C22.7227 16.1779 22.8105 15.4923 22.7754 14.4728C22.7344 13.2775 22.5352 12.4689 22.0371 11.4552C21.0059 9.38098 19.1953 7.95129 16.9336 7.43567C16.3594 7.3009 14.8945 7.24231 14.3086 7.32434ZM12.9141 10.7931C13.0664 11.0216 13.7695 12.7677 13.7695 12.9025C13.7695 12.9786 13.6113 13.2482 13.418 13.506C13.207 13.7872 13.0664 14.0333 13.0664 14.1212C13.0664 14.4845 14.1035 15.7267 14.8477 16.2599C15.2988 16.5763 16.1016 16.9865 16.3652 17.0333C16.5469 17.0626 16.582 17.0333 16.8516 16.7228C17.0156 16.5294 17.2324 16.2657 17.3379 16.1251C17.4609 15.9728 17.5781 15.879 17.6543 15.879C17.7246 15.879 18.2344 16.1017 18.7852 16.3712C19.5 16.7169 19.8047 16.8986 19.834 16.9865C19.875 17.1271 19.7871 17.6603 19.6699 17.9415C19.4648 18.4337 18.6152 18.9611 17.918 19.0255C17.4316 19.0665 16.9629 18.9786 16.2305 18.7091C15.4922 18.4337 14.8477 18.1115 14.3027 17.7365C13.752 17.3615 12.4453 16.0724 11.9766 15.4396C11.1094 14.2618 10.8105 13.5587 10.8105 12.6857C10.8164 12.0704 10.9395 11.713 11.332 11.1974C11.6719 10.7462 11.8301 10.6642 12.375 10.6642C12.7793 10.6642 12.8379 10.6759 12.9141 10.7931Z" fill="#333333"/>
</g>
<defs>
<clipPath id="clip0_17_210">
<rect width="30" height="30" fill="white"/>
</clipPath>
</defs>
</svg>
